<?xml version="1.0" encoding="utf-8"?>
<!-- Generator: Adobe Illustrator 21.0.2, SVG Export Plug-In . SVG Version: 6.00 Build 0)  -->
<svg version="1.1" id="Layer_1" xmlns="http://www.w3.org/2000/svg" xmlns:xlink="http://www.w3.org/1999/xlink" x="0px" y="0px"
	 viewBox="0 0 551 113.2" style="enable-background:new 0 0 551 113.2;" xml:space="preserve">
<style type="text/css">
	.st0{display:none;fill:#98CF8E;}
	.st1{display:none;fill:#FFFFFF;}
	.st2{fill:none;}
</style>
<path class="st0" d="M112.7,34.4c0-14.3,11.5-25.8,25.8-25.8h32.8c14.3,0,25.8,11.4,25.8,25.6v44.9c0,14.3-11.4,25.6-25.6,25.6h-33
	c-14.3,0-25.8-11.5-25.8-25.8L112.7,34.4L112.7,34.4z M171.4,79.1V34.2h-33.1v44.9H171.4z"/>
<path class="st1" d="M171.3,8h-32.8c-14.6,0-26.4,11.8-26.4,26.4V79c0,14.6,11.8,26.4,26.4,26.4h33c14.7,0,26.2-11.5,26.2-26.2V34.3
	C197.7,19.8,185.8,8,171.3,8L171.3,8z"/>
<g>
	<path d="M76.8,10v22.8h-52h-2v2v43.7v2h2h30.4h2v-2v-9.2v-2h-2H44.5V51H80v28.1c0,13.6-10.6,24.2-24.2,24.2H24.4
		C10.9,103.3,0,92.4,0,78.9V34.2C0,20.6,10.6,10,24.2,10L76.8,10"/>
	<g>
		<polygon points="86.7,15.9 78.8,8 78.8,34.8 24.8,34.8 24.8,78.5 32.7,78.5 32.7,42.7 86.7,42.7 		"/>
		<polygon points="50.4,77.2 55.1,77.2 55.1,69.3 42.5,69.3 		"/>
		<line class="st2" x1="82" y1="49" x2="82" y2="49"/>
		<path d="M82,49v30.1c0,14.7-11.5,26.2-26.2,26.2H24.4c-7.2,0-13.7-2.9-18.4-7.5c1.9,1.9,7.8,7.8,7.8,7.8
			c4.7,4.7,11.1,7.6,18.3,7.6h32.2c14.3,0,25.6-11.4,25.6-25.6V56.9L82,49z"/>
	</g>
	<path d="M171.3,10c13.5,0,24.4,10.9,24.4,24.2v44.9c0,13.6-10.6,24.2-24.2,24.2h-33c-13.5,0-24.4-10.9-24.4-24.4V34.3
		c0-13.5,10.9-24.4,24.4-24.4L171.3,10 M172.8,32.8h-2h-32h-2v2v43.7v2h2h32h2v-2V34.8V32.8L172.8,32.8z"/>
	<g>
		<path d="M198.1,24c0,0-4.1-4.1-7.2-7.3c4.2,4.6,6.8,10.8,6.8,17.5v44.9c0,14.7-11.5,26.2-26.2,26.2h-33c-6.6,0-12.6-2.4-17.2-6.4
			c2.5,2.5,6.7,6.7,6.7,6.7c4.7,4.7,11.8,7.6,19,7.6h33c14.3,0,25.9-11.4,25.9-25.6V42.7C205.8,35.6,202.8,28.6,198.1,24z"/>
		<polygon points="146.8,42.7 170.8,42.7 170.8,34.8 138.9,34.8 138.9,78.5 146.8,78.5 		"/>
	</g>
	<polyline points="298.8,10 298.8,32.8 275.4,32.8 273.4,32.8 273.4,34.8 273.4,103.4 249.5,103.4 249.5,34.8 249.5,32.8 
		247.5,32.8 224.2,32.8 224.2,10 298.8,10 	"/>
	<g>
		<polygon points="247.5,34.8 222.2,34.8 222.1,34.8 230.3,42.7 247.5,42.7 		"/>
		<polygon points="300.8,8 300.8,8 300.8,34.8 275.4,34.8 275.4,105.4 247.5,105.4 255.7,113.2 283.6,113.2 283.6,42.7 308.9,42.7 
			308.9,15.9 		"/>
	</g>
	<polyline points="447.7,2 447.7,17.9 430.6,42.6 425.2,42.6 430.8,26 431.7,23.4 428.9,23.4 424.7,23.4 424.7,2 447.7,2 	"/>
	<g>
		<polygon points="449.7,0 449.4,0 449.7,0 449.7,18.6 449.6,18.7 431.6,44.6 422.5,44.6 422.6,44.2 422.4,44.6 430.6,52.5 
			440.1,52.5 457.9,26.8 457.9,7.9 		"/>
		<polygon points="428.9,25.4 422.7,25.4 422.7,25.2 422.7,25.4 427.4,29.9 		"/>
	</g>
	<path d="M536.1,10v21.2h-42.4h-2v2v9.2v2h2h22.8c13.5,0,24.4,10.9,24.4,24.2V79c0,13.6-10.6,24.2-24.2,24.2h-46.2V82h45.6h2v-2
		V69.2v-2h-2h-22.8c-13.5,0-24.6-10.8-24.6-24.1v-8.8c0-13.5,10.9-24.4,24.4-24.4h43"/>
	<g>
		<polygon points="538.1,33.2 493.7,33.2 493.7,42.5 501.8,42.5 501.8,41.1 546.2,41.1 546.2,15.9 538.1,8 538.1,8 		"/>
		<path d="M482.8,69.8c4.7,4.6,12,7.4,19.1,7.4h14v-7.9h-22.8c-7.6,0-14.5-3.2-19.3-8.2C478.2,65.6,482.8,69.8,482.8,69.8z"/>
		<path d="M543.4,58.2c0,0-6.8-6.6-8.1-7.8c4.7,4.7,7.5,11.2,7.5,18.3v10.4c0,14.7-11.5,26.2-26.2,26.2h-48.2v-0.1v0.1l8.2,7.9h48.8
			c14.3,0,25.6-11.4,25.6-25.6V76.4C551,69.2,548.1,62.8,543.4,58.2z"/>
	</g>
	<polyline points="397,10 397,32.8 373.7,32.8 371.7,32.8 371.7,34.8 371.7,103.4 347.8,103.4 347.8,34.8 347.8,32.8 345.8,32.8 
		322.4,32.8 322.4,10 397,10 	"/>
	<g>
		<polygon points="345.8,34.8 320.4,34.8 320.4,34.8 328.6,42.7 345.8,42.7 		"/>
		<polygon points="399,8 399,8 399,34.8 373.7,34.8 373.7,105.4 345.8,105.4 353.9,113.2 381.9,113.2 381.9,42.7 407.2,42.7 
			407.2,15.9 		"/>
	</g>
</g>
</svg>
